<svg width="157" height="14" viewBox="0 0 157 14" fill="none" xmlns="http://www.w3.org/2000/svg">
<path d="M7.43506 4.21748C7.37066 3.64599 7.10504 3.20328 6.63818 2.88936C6.17133 2.57141 5.58373 2.41244 4.8754 2.41244C4.3683 2.41244 3.92961 2.49293 3.55935 2.65392C3.18908 2.81088 2.90132 3.02821 2.69607 3.30591C2.49484 3.57958 2.39422 3.89149 2.39422 4.24163C2.39422 4.53543 2.46264 4.78898 2.59948 5.00229C2.74034 5.21559 2.92346 5.39469 3.14884 5.53957C3.37824 5.68043 3.62374 5.79916 3.88534 5.89575C4.14694 5.98832 4.39848 6.06479 4.63996 6.12516L5.84735 6.43908C6.24176 6.53567 6.64623 6.66647 7.06077 6.83148C7.47531 6.99649 7.85966 7.21382 8.21382 7.48346C8.56799 7.75311 8.85374 8.08716 9.07107 8.4856C9.29242 8.88403 9.4031 9.36095 9.4031 9.91635C9.4031 10.6166 9.22199 11.2384 8.85977 11.7818C8.50158 12.3251 7.9804 12.7537 7.29621 13.0676C6.61605 13.3815 5.79301 13.5385 4.8271 13.5385C3.90144 13.5385 3.10054 13.3916 2.42441 13.0978C1.74827 12.804 1.21903 12.3875 0.836692 11.8482C0.454353 11.3048 0.243061 10.6609 0.202814 9.91635H2.07426C2.11048 10.3631 2.25537 10.7354 2.50892 11.0332C2.7665 11.327 3.0945 11.5463 3.49294 11.6912C3.8954 11.8321 4.3361 11.9025 4.81503 11.9025C5.34226 11.9025 5.81112 11.82 6.22164 11.655C6.63617 11.486 6.96217 11.2525 7.19962 10.9547C7.43707 10.6529 7.5558 10.3007 7.5558 9.89824C7.5558 9.532 7.45116 9.23216 7.24188 8.99873C7.03662 8.76531 6.75691 8.57212 6.40274 8.41919C6.0526 8.26625 5.65618 8.13143 5.21347 8.01471L3.75253 7.61628C2.76247 7.34663 1.97767 6.9502 1.39813 6.427C0.822606 5.9038 0.534846 5.21157 0.534846 4.3503C0.534846 3.63794 0.728027 3.01613 1.11439 2.48488C1.50075 1.95363 2.02396 1.54111 2.68399 1.24731C3.34403 0.949492 4.08859 0.800581 4.91766 0.800581C5.75478 0.800581 6.4933 0.94748 7.13321 1.24128C7.77715 1.53507 8.28425 1.93955 8.65452 2.4547C9.02478 2.96583 9.21797 3.55342 9.23406 4.21748H7.43506ZM15.8822 13.3333V0.969615H17.7476V6.34248H23.9114V0.969615H25.7828V13.3333H23.9114V7.94227H17.7476V13.3333H15.8822ZM33.7938 13.3333H31.8137L36.2629 0.969615H38.4181L42.8673 13.3333H40.8872L37.3918 3.21535H37.2952L33.7938 13.3333ZM34.1258 8.49163H40.5491V10.0612H34.1258V8.49163ZM48.9027 13.3333V0.969615H50.7682V6.34248H56.9319V0.969615H58.8033V13.3333H56.9319V7.94227H50.7682V13.3333H48.9027ZM78.5214 13.3333H74.519V0.969615H78.6482C79.8596 0.969615 80.9 1.21713 81.7693 1.71216C82.6386 2.20316 83.3047 2.90948 83.7675 3.83112C84.2344 4.74873 84.4678 5.84947 84.4678 7.13332C84.4678 8.4212 84.2324 9.52797 83.7615 10.4536C83.2946 11.3793 82.6185 12.0917 81.7331 12.5907C80.8477 13.0857 79.7771 13.3333 78.5214 13.3333ZM76.3844 11.7033H78.4188C79.3606 11.7033 80.1434 11.5262 80.7672 11.172C81.391 10.8138 81.8579 10.2967 82.1677 9.62054C82.4776 8.94038 82.6326 8.11131 82.6326 7.13332C82.6326 6.16339 82.4776 5.34035 82.1677 4.66422C81.8619 3.98808 81.4051 3.47494 80.7974 3.1248C80.1896 2.77466 79.435 2.59959 78.5335 2.59959H76.3844V11.7033ZM91.0375 13.3333V0.969615H98.7889V2.57544H92.9029V6.34248H98.3845V7.94227H92.9029V11.7274H98.8614V13.3333H91.0375ZM112.274 4.21748C112.21 3.64599 111.944 3.20328 111.477 2.88936C111.01 2.57141 110.423 2.41244 109.714 2.41244C109.207 2.41244 108.768 2.49293 108.398 2.65392C108.028 2.81088 107.74 3.02821 107.535 3.30591C107.334 3.57958 107.233 3.89149 107.233 4.24163C107.233 4.53543 107.302 4.78898 107.438 5.00229C107.579 5.21559 107.762 5.39469 107.988 5.53957C108.217 5.68043 108.463 5.79916 108.724 5.89575C108.986 5.98832 109.237 6.06479 109.479 6.12516L110.686 6.43908C111.081 6.53567 111.485 6.66647 111.9 6.83148C112.314 6.99649 112.699 7.21382 113.053 7.48346C113.407 7.75311 113.693 8.08716 113.91 8.4856C114.131 8.88403 114.242 9.36095 114.242 9.91635C114.242 10.6166 114.061 11.2384 113.699 11.7818C113.34 12.3251 112.819 12.7537 112.135 13.0676C111.455 13.3815 110.632 13.5385 109.666 13.5385C108.74 13.5385 107.939 13.3916 107.263 13.0978C106.587 12.804 106.058 12.3875 105.676 11.8482C105.293 11.3048 105.082 10.6609 105.042 9.91635H106.913C106.949 10.3631 107.094 10.7354 107.348 11.0332C107.605 11.327 107.933 11.5463 108.332 11.6912C108.734 11.8321 109.175 11.9025 109.654 11.9025C110.181 11.9025 110.65 11.82 111.061 11.655C111.475 11.486 111.801 11.2525 112.038 10.9547C112.276 10.6529 112.395 10.3007 112.395 9.89824C112.395 9.532 112.29 9.23216 112.081 8.99873C111.875 8.76531 111.596 8.57212 111.242 8.41919C110.891 8.26625 110.495 8.13143 110.052 8.01471L108.591 7.61628C107.601 7.34663 106.817 6.9502 106.237 6.427C105.661 5.9038 105.374 5.21157 105.374 4.3503C105.374 3.63794 105.567 3.01613 105.953 2.48488C106.34 1.95363 106.863 1.54111 107.523 1.24731C108.183 0.949492 108.927 0.800581 109.757 0.800581C110.594 0.800581 111.332 0.94748 111.972 1.24128C112.616 1.53507 113.123 1.93955 113.493 2.4547C113.864 2.96583 114.057 3.55342 114.073 4.21748H112.274ZM122.587 0.969615V13.3333H120.721V0.969615H122.587ZM137.92 4.87551C137.804 4.50927 137.647 4.18126 137.449 3.89149C137.256 3.59769 137.025 3.34817 136.755 3.14291C136.486 2.93363 136.178 2.77466 135.832 2.66599C135.489 2.55733 135.113 2.503 134.703 2.503C134.006 2.503 133.379 2.68209 132.819 3.04028C132.26 3.39847 131.817 3.92369 131.491 4.61592C131.169 5.30413 131.008 6.14729 131.008 7.1454C131.008 8.14753 131.171 8.99471 131.497 9.68695C131.823 10.3792 132.27 10.9044 132.837 11.2626C133.405 11.6208 134.051 11.7999 134.775 11.7999C135.447 11.7999 136.033 11.663 136.532 11.3894C137.035 11.1157 137.423 10.7293 137.697 10.2303C137.975 9.72719 138.114 9.13557 138.114 8.45541L138.596 8.54596H135.059V7.00655H139.919V8.41315C139.919 9.4515 139.697 10.353 139.254 11.1177C138.816 11.8784 138.208 12.4659 137.431 12.8805C136.659 13.295 135.773 13.5023 134.775 13.5023C133.656 13.5023 132.674 13.2447 131.829 12.7296C130.988 12.2144 130.332 11.4839 129.861 10.5382C129.39 9.58834 129.155 8.46145 129.155 7.15747C129.155 6.17144 129.292 5.28602 129.565 4.50122C129.839 3.71642 130.223 3.05034 130.718 2.503C131.217 1.95162 131.803 1.53105 132.475 1.24128C133.151 0.94748 133.89 0.800581 134.691 0.800581C135.359 0.800581 135.98 0.899184 136.556 1.09639C137.136 1.2936 137.651 1.57331 138.101 1.93552C138.556 2.29774 138.933 2.72837 139.23 3.22743C139.528 3.72246 139.729 4.27182 139.834 4.87551H137.92ZM156.516 0.969615V13.3333H154.801L148.517 4.26578H148.402V13.3333H146.537V0.969615H148.263L154.554 10.0492H154.668V0.969615H156.516Z" fill="#090909"/>
</svg>
